<svg xmlns="http://www.w3.org/2000/svg" width="283" height="99" viewBox="0 0 283 99"><path d="M 32.653 58.678 C 29.826 58.678 27.183 58.251 24.723 57.398 C 22.263 56.545 20.133 55.315 18.333 53.708 C 16.526 52.095 15.113 50.108 14.093 47.748 C 13.066 45.381 12.553 42.688 12.553 39.668 C 12.553 36.695 13.076 34.028 14.123 31.668 C 15.17 29.301 16.573 27.301 18.333 25.668 C 20.086 24.035 22.096 22.791 24.363 21.938 C 26.63 21.091 28.98 20.668 31.413 20.668 C 34.193 20.668 36.653 21.105 38.793 21.978 C 40.94 22.858 42.733 24.078 44.173 25.638 C 45.606 27.198 46.69 29.038 47.423 31.158 C 48.156 33.271 48.523 35.571 48.523 38.058 C 48.523 39.038 48.46 39.978 48.333 40.878 C 48.213 41.778 48.103 42.448 48.003 42.888 L 23.303 42.888 C 23.836 45.521 25.03 47.445 26.883 48.658 C 28.736 49.878 31.15 50.488 34.123 50.488 C 35.776 50.488 37.346 50.268 38.833 49.828 C 40.32 49.388 41.866 48.755 43.473 47.928 L 47.053 54.438 C 44.96 55.751 42.646 56.785 40.113 57.538 C 37.58 58.298 35.093 58.678 32.653 58.678 Z M 31.783 28.848 C 29.636 28.848 27.843 29.408 26.403 30.528 C 24.97 31.648 23.983 33.355 23.443 35.648 L 38.943 35.648 C 38.41 31.115 36.023 28.848 31.783 28.848 ZM 68.689 57.798 L 57.949 57.798 L 57.949 6.558 L 68.689 6.558 L 68.689 36.158 L 68.979 36.158 L 82.289 21.538 L 94.059 21.538 L 80.239 36.308 L 95.149 57.798 L 83.529 57.798 L 74.029 42.958 L 68.689 48.658 L 68.689 57.798 ZM 109.035 57.798 L 98.805 57.798 L 98.805 21.538 L 106.915 21.538 L 107.645 25.998 L 107.945 25.998 C 108.625 24.538 109.575 23.285 110.795 22.238 C 112.009 21.191 113.665 20.668 115.765 20.668 C 117.325 20.668 118.652 21.165 119.745 22.158 C 120.845 23.158 121.612 24.635 122.045 26.588 C 122.732 24.928 123.719 23.525 125.005 22.378 C 126.299 21.238 127.995 20.668 130.095 20.668 C 132.722 20.668 134.732 21.701 136.125 23.768 C 137.512 25.841 138.205 28.705 138.205 32.358 L 138.205 57.798 L 127.975 57.798 L 127.975 33.088 C 127.975 31.968 127.829 31.141 127.535 30.608 C 127.242 30.068 126.729 29.798 125.995 29.798 C 125.315 29.798 124.732 30.091 124.245 30.678 C 123.759 31.265 123.245 32.141 122.705 33.308 L 122.705 57.798 L 114.305 57.798 L 114.305 33.088 C 114.305 30.895 113.622 29.798 112.255 29.798 C 111.575 29.798 110.989 30.091 110.495 30.678 C 110.009 31.265 109.522 32.141 109.035 33.308 L 109.035 57.798 ZM 156.472 58.678 C 154.625 58.678 152.968 58.398 151.502 57.838 C 150.042 57.278 148.802 56.498 147.782 55.498 C 146.755 54.498 145.962 53.341 145.402 52.028 C 144.842 50.708 144.562 49.268 144.562 47.708 C 144.562 45.661 144.998 43.871 145.872 42.338 C 146.752 40.805 148.155 39.501 150.082 38.428 C 152.008 37.355 154.482 36.488 157.502 35.828 C 160.522 35.175 164.175 34.725 168.462 34.478 C 168.268 32.825 167.552 31.535 166.312 30.608 C 165.065 29.681 163.198 29.218 160.712 29.218 C 158.958 29.218 157.192 29.521 155.412 30.128 C 153.638 30.741 151.728 31.558 149.682 32.578 L 145.872 25.558 C 148.358 24.145 151.028 22.975 153.882 22.048 C 156.735 21.128 159.718 20.668 162.832 20.668 C 167.905 20.668 171.902 22.008 174.822 24.688 C 177.748 27.368 179.212 31.485 179.212 37.038 L 179.212 57.798 L 170.442 57.798 L 169.632 53.708 L 169.342 53.708 C 167.488 55.121 165.465 56.301 163.272 57.248 C 161.078 58.201 158.812 58.678 156.472 58.678 Z M 159.912 50.338 C 161.518 50.338 163.028 50.011 164.442 49.358 C 165.855 48.698 167.195 47.881 168.462 46.908 L 168.462 40.908 C 165.782 41.055 163.565 41.298 161.812 41.638 C 160.058 41.985 158.668 42.411 157.642 42.918 C 156.622 43.431 155.905 44.031 155.492 44.718 C 155.078 45.398 154.872 46.128 154.872 46.908 C 154.872 48.075 155.322 48.938 156.222 49.498 C 157.122 50.058 158.352 50.338 159.912 50.338 ZM 199.968 57.798 L 189.218 57.798 L 189.218 21.538 L 197.998 21.538 L 198.798 26.368 L 199.088 26.368 C 200.648 24.808 202.438 23.468 204.458 22.348 C 206.484 21.228 208.861 20.668 211.588 20.668 C 215.681 20.668 218.678 21.981 220.578 24.608 C 222.478 27.241 223.428 30.848 223.428 35.428 L 223.428 57.798 L 212.688 57.798 L 212.688 36.818 C 212.688 34.385 212.298 32.605 211.518 31.478 C 210.738 30.358 209.348 29.798 207.348 29.798 C 205.888 29.798 204.608 30.115 203.508 30.748 C 202.414 31.381 201.234 32.331 199.968 33.598 L 199.968 57.798 ZM 246.524 58.678 C 244.237 58.678 242.154 58.238 240.274 57.358 C 238.401 56.485 236.794 55.231 235.454 53.598 C 234.114 51.965 233.077 49.978 232.344 47.638 C 231.617 45.298 231.254 42.641 231.254 39.668 C 231.254 36.695 231.691 34.038 232.564 31.698 C 233.444 29.358 234.601 27.375 236.034 25.748 C 237.474 24.115 239.121 22.858 240.974 21.978 C 242.827 21.105 244.751 20.668 246.744 20.668 C 248.791 20.668 250.521 20.995 251.934 21.648 C 253.347 22.308 254.664 23.271 255.884 24.538 L 256.174 24.538 L 255.664 18.908 L 255.664 6.558 L 266.414 6.558 L 266.414 57.798 L 257.634 57.798 L 256.834 54.068 L 256.614 54.068 C 255.247 55.388 253.687 56.485 251.934 57.358 C 250.181 58.238 248.377 58.678 246.524 58.678 Z M 249.304 49.908 C 250.524 49.908 251.644 49.651 252.664 49.138 C 253.691 48.625 254.691 47.758 255.664 46.538 L 255.664 31.848 C 254.691 30.968 253.704 30.348 252.704 29.988 C 251.704 29.621 250.667 29.438 249.594 29.438 C 247.601 29.438 245.884 30.265 244.444 31.918 C 243.004 33.578 242.284 36.115 242.284 39.528 C 242.284 43.128 242.894 45.758 244.114 47.418 C 245.334 49.078 247.064 49.908 249.304 49.908 Z" transform="matrix(1, 0, 0, 1, 0, 0)" style="white-space:pre"/><path d="M 185.986 91.115 L 182.926 91.115 L 182.926 64.555 L 185.986 64.555 L 185.986 71.795 L 185.796 76.085 L 185.906 76.085 C 186.853 75.065 187.866 74.218 188.946 73.545 C 190.033 72.872 191.283 72.535 192.696 72.535 C 194.863 72.535 196.449 73.152 197.456 74.385 C 198.463 75.618 198.966 77.442 198.966 79.855 L 198.966 91.115 L 195.906 91.115 L 195.906 80.265 C 195.906 78.545 195.583 77.268 194.936 76.435 C 194.289 75.602 193.219 75.185 191.726 75.185 C 191.179 75.185 190.676 75.255 190.216 75.395 C 189.756 75.528 189.303 75.732 188.856 76.005 C 188.409 76.278 187.949 76.622 187.476 77.035 C 187.003 77.442 186.506 77.922 185.986 78.475 L 185.986 91.115 ZM 213.024 91.565 C 211.831 91.565 210.694 91.352 209.614 90.925 C 208.527 90.505 207.574 89.892 206.754 89.085 C 205.934 88.272 205.284 87.275 204.804 86.095 C 204.317 84.915 204.074 83.578 204.074 82.085 C 204.074 80.572 204.317 79.225 204.804 78.045 C 205.284 76.858 205.934 75.855 206.754 75.035 C 207.574 74.215 208.527 73.595 209.614 73.175 C 210.694 72.748 211.831 72.535 213.024 72.535 C 214.217 72.535 215.354 72.748 216.434 73.175 C 217.521 73.595 218.474 74.215 219.294 75.035 C 220.114 75.855 220.764 76.858 221.244 78.045 C 221.731 79.225 221.974 80.572 221.974 82.085 C 221.974 83.578 221.731 84.915 221.244 86.095 C 220.764 87.275 220.114 88.272 219.294 89.085 C 218.474 89.892 217.521 90.505 216.434 90.925 C 215.354 91.352 214.217 91.565 213.024 91.565 Z M 213.024 89.025 C 213.897 89.025 214.687 88.858 215.394 88.525 C 216.101 88.185 216.711 87.712 217.224 87.105 C 217.731 86.498 218.121 85.772 218.394 84.925 C 218.667 84.078 218.804 83.132 218.804 82.085 C 218.804 81.045 218.667 80.095 218.394 79.235 C 218.121 78.375 217.731 77.635 217.224 77.015 C 216.711 76.395 216.101 75.915 215.394 75.575 C 214.687 75.242 213.897 75.075 213.024 75.075 C 212.151 75.075 211.361 75.242 210.654 75.575 C 209.947 75.915 209.337 76.395 208.824 77.015 C 208.317 77.635 207.927 78.375 207.654 79.235 C 207.381 80.095 207.244 81.045 207.244 82.085 C 207.244 83.132 207.381 84.078 207.654 84.925 C 207.927 85.772 208.317 86.498 208.824 87.105 C 209.337 87.712 209.947 88.185 210.654 88.525 C 211.361 88.858 212.151 89.025 213.024 89.025 ZM 235.772 91.565 C 233.985 91.565 232.332 91.285 230.812 90.725 C 229.299 90.165 227.982 89.498 226.862 88.725 L 228.282 86.715 C 229.322 87.462 230.472 88.058 231.732 88.505 C 232.985 88.952 234.459 89.175 236.152 89.175 C 237.692 89.175 238.842 88.895 239.602 88.335 C 240.355 87.775 240.732 87.112 240.732 86.345 C 240.732 85.992 240.672 85.668 240.552 85.375 C 240.425 85.075 240.159 84.788 239.752 84.515 C 239.339 84.242 238.759 83.978 238.012 83.725 C 237.265 83.478 236.282 83.232 235.062 82.985 C 232.702 82.485 230.932 81.818 229.752 80.985 C 228.572 80.152 227.982 79.052 227.982 77.685 C 227.982 76.965 228.142 76.288 228.462 75.655 C 228.789 75.022 229.269 74.475 229.902 74.015 C 230.535 73.555 231.319 73.195 232.252 72.935 C 233.185 72.668 234.272 72.535 235.512 72.535 C 236.905 72.535 238.249 72.765 239.542 73.225 C 240.835 73.685 241.929 74.228 242.822 74.855 L 241.332 76.825 C 240.485 76.258 239.552 75.798 238.532 75.445 C 237.512 75.098 236.419 74.925 235.252 74.925 C 233.712 74.925 232.632 75.188 232.012 75.715 C 231.385 76.235 231.072 76.842 231.072 77.535 C 231.072 78.335 231.482 78.938 232.302 79.345 C 233.122 79.758 234.465 80.162 236.332 80.555 C 237.852 80.882 239.095 81.225 240.062 81.585 C 241.035 81.945 241.802 82.348 242.362 82.795 C 242.922 83.242 243.305 83.738 243.512 84.285 C 243.725 84.832 243.832 85.455 243.832 86.155 C 243.832 86.902 243.659 87.598 243.312 88.245 C 242.965 88.892 242.449 89.462 241.762 89.955 C 241.075 90.455 240.229 90.848 239.222 91.135 C 238.215 91.422 237.065 91.565 235.772 91.565 ZM 261.29 91.565 C 259.97 91.565 258.864 91.385 257.97 91.025 C 257.07 90.665 256.347 90.155 255.8 89.495 C 255.254 88.835 254.864 88.045 254.63 87.125 C 254.39 86.205 254.27 85.185 254.27 84.065 L 254.27 75.485 L 249.16 75.485 L 249.16 73.175 L 254.39 72.985 L 254.8 67.165 L 257.33 67.165 L 257.33 72.985 L 266.25 72.985 L 266.25 75.485 L 257.33 75.485 L 257.33 84.105 C 257.33 84.925 257.407 85.638 257.56 86.245 C 257.707 86.858 257.954 87.375 258.3 87.795 C 258.647 88.215 259.12 88.532 259.72 88.745 C 260.314 88.958 261.047 89.065 261.92 89.065 C 262.794 89.065 263.577 88.988 264.27 88.835 C 264.964 88.688 265.634 88.492 266.28 88.245 L 266.96 90.485 C 266.134 90.778 265.267 91.032 264.36 91.245 C 263.454 91.458 262.43 91.565 261.29 91.565 Z" transform="matrix(1, 0, 0, 1, 0, 0)" style="white-space:pre"/></svg>